<?xml version="1.0" encoding="UTF-8" standalone="no"?>
<!-- Generator: Adobe Illustrator 10.0, SVG Export Plug-In . SVG Version: 3.0.0 Build 77)  -->

<svg
   xmlns:ns0="http://ns.adobe.com/SaveForWeb/1.0/"
   xmlns:ns="http://ns.adobe.com/Variables/1.0/"
   xmlns:i="http://ns.adobe.com/AdobeIllustrator/10.0/"
   xmlns:dc="http://purl.org/dc/elements/1.1/"
   xmlns:cc="http://creativecommons.org/ns#"
   xmlns:rdf="http://www.w3.org/1999/02/22-rdf-syntax-ns#"
   xmlns:svg="http://www.w3.org/2000/svg"
   xmlns="http://www.w3.org/2000/svg"
   xmlns:sodipodi="http://sodipodi.sourceforge.net/DTD/sodipodi-0.dtd"
   xmlns:inkscape="http://www.inkscape.org/namespaces/inkscape"
   i:viewOrigin="262 450"
   i:rulerOrigin="0 0"
   i:pageBounds="0 792 612 0"
   width="90"
   height="97"
   viewBox="0 0 90 97"
   overflow="visible"
   enable-background="new 0 0 87.041 108.445"
   xml:space="preserve"
   id="svg2"
   version="1.1"
   inkscape:version="0.47 r22583"
   sodipodi:docname="kde_at_debian.svg"
   style="overflow:visible"><defs
   id="defs35"><inkscape:perspective
   sodipodi:type="inkscape:persp3d"
   inkscape:vp_x="0 : 54.2225 : 1"
   inkscape:vp_y="0 : 1000 : 0"
   inkscape:vp_z="87.041 : 54.2225 : 1"
   inkscape:persp3d-origin="43.5205 : 36.148333 : 1"
   id="perspective37" />
			
		
				
				
				
				
				
			<inkscape:perspective
   id="perspective2851"
   inkscape:persp3d-origin="112.5 : 74.612793 : 1"
   inkscape:vp_z="225 : 111.91919 : 1"
   inkscape:vp_y="0 : 1000 : 0"
   inkscape:vp_x="0 : 111.91919 : 1"
   sodipodi:type="inkscape:persp3d" /><inkscape:perspective
   id="perspective2876"
   inkscape:persp3d-origin="0.5 : 0.33333333 : 1"
   inkscape:vp_z="1 : 0.5 : 1"
   inkscape:vp_y="0 : 1000 : 0"
   inkscape:vp_x="0 : 0.5 : 1"
   sodipodi:type="inkscape:persp3d" />
			
		
				
				
				
				
				
			<inkscape:perspective
   id="perspective3686"
   inkscape:persp3d-origin="112.5 : 74.612793 : 1"
   inkscape:vp_z="225 : 111.91919 : 1"
   inkscape:vp_y="0 : 1000 : 0"
   inkscape:vp_x="0 : 111.91919 : 1"
   sodipodi:type="inkscape:persp3d" />
		
	
			
			
			
			
			
			
			
			
			
			
			
			
		</defs><sodipodi:namedview
   pagecolor="#ffffff"
   bordercolor="#666666"
   borderopacity="1"
   objecttolerance="10"
   gridtolerance="10"
   guidetolerance="10"
   inkscape:pageopacity="0"
   inkscape:pageshadow="2"
   inkscape:window-width="1920"
   inkscape:window-height="1026"
   id="namedview33"
   showgrid="false"
   inkscape:zoom="3.8814433"
   inkscape:cx="106.73939"
   inkscape:cy="24.700583"
   inkscape:window-x="0"
   inkscape:window-y="-3"
   inkscape:window-maximized="1"
   inkscape:current-layer="svg2" />
	<metadata
   id="metadata4">
		<ns:variableSets>
			<ns:variableSet
   varSetName="binding1"
   locked="none">
				<ns:variables />
				<ns:sampleDataSets />
			</ns:variableSet>
		</ns:variableSets>
		<ns0:sfw>
			<ns0:slices />
			<ns0:sliceSourceBounds
   y="341.555"
   x="262"
   width="87.041"
   height="108.445"
   bottomLeftOrigin="true" />
		</ns0:sfw>
	<rdf:RDF><cc:Work
     rdf:about=""><dc:format>image/svg+xml</dc:format><dc:type
       rdf:resource="http://purl.org/dc/dcmitype/StillImage" /><dc:title></dc:title></cc:Work></rdf:RDF></metadata>
	
<path
   style="fill:#d70751;fill-opacity:1"
   d="M 57.8125 0.46875 C 56.360762 0.59059227 54.926678 0.6909404 53.5 0.875 L 54.125 0.9375 C 55.174917 0.55296235 56.698637 0.72193996 57.8125 0.46875 z M 51.46875 1.15625 C 49.107948 1.2996955 45.832718 2.5252978 46.84375 1.40625 C 44.234233 2.57046 40.272671 4.0790679 36.78125 6.03125 L 31.21875 6.09375 C 30.231078 6.4127238 29.559667 7.4373306 29.625 8.46875 L 29.5625 10.90625 C 27.220358 13.001489 24.383343 15.512348 24.0625 17.375 L 23.59375 17.46875 C 22.678637 19.018134 22.100869 20.780681 21.375 22.375 C 20.477385 23.904509 19.922292 23.591159 19.78125 23.46875 C 17.427361 28.241338 16.260167 32.273623 15.25 35.5625 C 15.96982 36.638341 15.259 42.021374 15.53125 46.34375 C 14.349121 67.691207 30.518643 88.4332 48.1875 93.21875 C 50.777296 94.145097 54.630335 94.092446 57.90625 94.1875 C 54.040998 93.082278 53.546262 93.625113 49.78125 92.3125 C 47.065291 91.033588 46.454802 89.544498 44.53125 87.875 L 45.3125 89.25 C 41.53971 87.91492 43.100638 87.597146 40.03125 86.625 L 40.84375 85.5625 C 39.621007 85.47004 37.613815 83.495917 37.0625 82.40625 L 35.71875 82.4375 C 34.36647 80.768962 33.565416 79.517924 33.375 78.5 C 35.037385 78.378345 36.678561 78.183252 38.3125 77.84375 C 40.754477 77.443444 43.214652 77.218942 45.6875 77.15625 C 46.738111 77.08652 47.841801 76.360557 47.9375 75.25 C 48.277295 69.559412 48.428007 63.854173 48.59375 58.15625 C 50.426005 59.662198 52.583001 60.937738 54.8125 61.84375 L 66.4375 80.0625 C 68.449765 80.573331 70.561933 80.520065 72.59375 80.15625 C 74.746389 79.456416 76.729328 78.317864 78.9375 77.78125 L 85.59375 75.5625 C 86.497947 75.111968 87.082802 73.906691 86.5625 72.96875 C 82.985422 67.515599 79.393137 62.055097 75.78125 56.625 C 76.000854 56.460535 76.220512 56.298945 76.4375 56.125 C 78.183906 54.76486 80.104935 52.469473 80.65625 52.4375 C 79.825821 53.686167 80.793978 53.022371 80.15625 54.125 C 81.896607 51.318307 79.382269 52.985773 81.9375 49.28125 L 82.90625 50.59375 C 82.555413 48.264057 85.797983 45.434648 85.46875 41.75 C 85.840758 41.186588 86.046622 41.482005 86.0625 42.25 C 86.02053 41.566338 85.936527 40.904859 86.0625 39.84375 C 86.366674 40.641342 86.763951 41.470838 86.96875 42.3125 C 86.254979 39.533459 87.70475 37.646308 88.0625 36.03125 C 87.709935 35.874843 86.952348 37.251578 86.78125 33.96875 C 86.80631 32.542936 87.200304 33.225837 87.34375 32.875 C 87.063772 32.714272 86.321755 31.627628 85.875 29.53125 C 86.199049 29.038696 86.746794 30.802413 87.1875 30.875 C 86.904066 29.208094 86.394875 27.935162 86.375 26.65625 C 85.087447 23.965351 85.919733 27.013955 84.875 25.5 C 83.504491 21.225151 86.018131 24.505063 86.1875 22.5625 C 88.264867 25.572263 89.456463 30.255306 90 32.1875 C 89.585218 29.831883 88.912081 27.520351 88.09375 25.3125 C 88.724565 25.577788 87.069975 20.48934 88.90625 23.875 C 88.347715 21.819985 87.416172 19.813238 86.25 17.90625 L 89.03125 14.5625 C 89.509458 13.743538 89.500792 12.542936 88.71875 11.90625 C 86.773723 11.109127 84.656034 11.016809 82.65625 10.40625 C 81.292501 10.054493 79.926939 9.6928694 78.5625 9.34375 C 77.255481 8.3282261 75.901334 7.4491344 74.59375 6.75 C 75.317891 7.4127874 76.234619 8.2445164 75.90625 8.375 C 72.963025 6.6225453 73.484195 6.490559 73.0625 5.75 C 70.66454 4.7743977 70.52577 5.8269075 68.9375 5.75 C 64.418102 3.3529046 63.534056 3.5956072 59.375 2.09375 L 59.5625 2.96875 C 56.568291 1.9715445 56.079915 3.3437822 52.84375 2.96875 C 52.646728 2.8149349 53.859648 2.4290162 54.875 2.28125 C 51.980166 2.6631953 52.145117 1.6992507 49.3125 2.375 C 50.010717 1.8850385 50.72387 1.5727604 51.46875 1.15625 z M 54.875 2.28125 L 55.4375 2.21875 L 55.46875 2.15625 L 54.875 2.28125 z M 55.46875 2.15625 C 56.375222 1.9575002 56.580307 1.7661358 53.8125 1.6875 C 54.6412 1.8361303 55.603554 1.9583643 55.46875 2.15625 z M 86.0625 42.25 C 86.07838 43.017995 85.894907 44.235056 85.5 45.53125 C 86.105736 43.941432 86.114379 43.095173 86.0625 42.25 z M 12.03125 7.03125 C 11.952805 7.0299321 11.860311 7.0414503 11.78125 7.0625 C 10.482789 8.4253842 9.6287524 10.12062 8.5625 11.65625 C 7.6361855 13.101732 6.6870314 14.532497 5.65625 15.90625 C 5.2380608 16.819205 5.4403801 17.996792 6.25 18.625 C 7.752419 20.076362 9.4256391 21.367788 10.90625 22.84375 C 11.904702 23.83519 13.014609 24.749825 13.65625 26.03125 C 14.26647 26.962238 14.138175 28.130038 14.5625 29.125 C 14.624587 29.213443 14.681408 29.254189 14.75 29.28125 C 14.6884 29.828676 14.862493 30.235995 14.78125 30.90625 C 15.010745 30.201867 15.148182 29.622153 15.25 29.125 C 15.252358 29.113486 15.278931 29.105186 15.28125 29.09375 C 15.5053 28.862946 15.672397 28.506191 15.71875 28.28125 C 16.018862 27.312395 16.673477 26.510459 17.03125 25.5625 C 18.091997 23.303638 18.938462 20.924085 20.34375 18.84375 C 21.115188 17.667769 21.921677 16.518799 22.78125 15.40625 C 23.387163 14.538948 24.25112 13.806733 24.6875 12.84375 C 24.923125 11.932917 24.147937 11.032483 23.25 10.9375 C 21.883384 10.597982 20.469285 10.355411 19.1875 9.75 C 17.034102 8.878352 14.892561 7.9764522 12.71875 7.15625 C 12.485763 7.1224167 12.266586 7.0352038 12.03125 7.03125 z M 68.71875 8.875 L 81.34375 11.78125 L 86.21875 12.90625 L 78.25 23.1875 L 63.625 41.96875 L 67.09375 46.75 L 67.28125 47 L 67.4375 47.21875 L 67.59375 47.4375 L 72.9375 54.78125 C 72.337183 55.230491 71.815628 55.572457 71.5 55.65625 C 70.685126 55.6381 72.039875 54.682347 72.21875 54.3125 C 69.923622 55.888672 70.385094 56.667544 66.875 57.625 L 66.78125 57.40625 C 62.571866 59.386569 57.581172 58.484079 53.5625 55.78125 L 47 46.1875 L 47 47.3125 L 47 53.3125 L 47 56.0625 L 47 56.28125 L 46.59375 56.28125 C 46.720654 56.420755 46.867008 56.550656 47 56.6875 L 47 75.09375 L 31.90625 77.34375 C 31.520259 76.829672 31.127046 76.266153 30.6875 75.65625 L 30.6875 20.53125 C 32.740175 18.798057 34.792726 17.54561 36.1875 17.71875 C 37.88033 15.592127 35.830962 17.72325 35.5 17.1875 C 39.218349 13.339531 40.396818 14.473418 42.90625 13.78125 C 45.612704 12.174833 40.591768 14.395412 41.875 13.15625 C 44.972011 12.365122 45.439353 11.432693 47.15625 10.71875 L 47.03125 32.59375 L 47.03125 32.625 L 47 36.21875 L 47 36.25 L 47 37.9375 L 53.09375 29.75 C 53.246031 29.673668 53.406349 29.601477 53.5625 29.53125 C 58.61593 27.029595 64.567661 28.063938 68.1875 31.4375 C 66.199138 28.833014 62.221745 26.054125 57.53125 26.3125 C 56.856975 26.323153 56.184103 26.406378 55.53125 26.53125 L 66.59375 11.71875 L 68.71875 8.875 z M 56.375 9.6875 C 59.391372 9.7361627 62.678504 10.30819 65.46875 11.3125 L 52.6875 27.4375 C 51.454324 27.996451 50.330456 28.723098 49.40625 29.5625 L 50.09375 10 C 50.474208 9.944608 50.821804 9.8894149 51.28125 9.84375 C 51.56682 10.006276 51.270294 10.143755 50.84375 10.28125 C 52.403492 9.8531813 54.318886 9.654329 56.375 9.6875 z M 30.6875 9.75 L 30.8125 9.75 C 30.768539 9.7907057 30.732443 9.8336979 30.6875 9.875 L 30.6875 9.75 z M 29.25 21.8125 L 27.9375 69.3125 C 26.811099 67.706044 25.924273 65.933259 26 65.28125 C 26.722412 66.256852 27.22274 66.426973 27.71875 66.59375 C 24.299389 58.109726 24.089796 66.137367 21.5 57.96875 L 22.0625 57.9375 C 21.642533 57.304957 21.369125 56.611521 21.03125 55.9375 L 21.28125 53.5625 C 18.819345 50.716057 20.582343 41.451761 20.9375 36.375 C 21.183777 34.310594 22.999306 32.102399 24.375 28.65625 L 23.53125 28.53125 C 24.342644 27.115905 26.684402 24.24076 29.25 21.8125 z M 79.5625 26.03125 C 80.311467 27.980106 80.776434 29.993669 80.84375 31.96875 L 81.1875 32.0625 C 81.025044 35.347921 81.683999 39.134781 80.53125 42.625 L 81.3125 40.96875 C 81.40496 43.479911 80.589494 44.718133 79.84375 46.875 L 78.5 47.53125 C 77.401691 49.663922 78.59886 48.897464 77.8125 50.59375 C 76.846943 51.452239 75.348418 52.822461 74 53.9375 C 72.327739 51.426514 70.643149 48.915811 68.96875 46.40625 C 69.406485 45.575074 69.72831 44.704374 69.875 43.8125 C 69.700963 44.676882 69.283283 45.443557 68.84375 46.21875 C 68.635449 45.906558 68.427059 45.593437 68.21875 45.28125 C 68.39218 44.973801 68.540184 44.687277 68.59375 44.46875 C 68.37286 44.746758 68.260919 44.900416 68.09375 45.125 C 67.614638 44.406972 67.135355 43.686782 66.65625 42.96875 C 66.40008 41.970698 67.094582 41.079975 67.71875 40.375 L 79.5625 26.03125 z M 11.78125 36.25 C 11.701678 36.2484 11.612342 36.257109 11.53125 36.28125 C 9.1482145 37.228346 6.7465848 38.17405 4.21875 38.65625 C 3.2555583 38.928244 2.1925182 38.770465 1.28125 39.21875 C 0.29284233 39.640304 -0.074233227 40.754558 0.09375 41.75 C 0.16021911 43.701219 0.24977326 45.647375 0.40625 47.59375 C 0.26486439 48.415043 0.95033276 49.156109 1.6875 49.40625 C 2.9689502 49.758324 4.2466781 50.180117 5.5 50.625 C 6.7274328 51.046643 7.9148217 51.583861 9.0625 52.1875 C 9.9568935 52.697289 10.789384 53.315198 11.5 54.0625 C 12.05817 54.613445 13.187501 55.040188 13.5 54 C 13.886181 53.103713 13.410627 52.184999 13.34375 51.28125 C 13.116965 48.893887 12.863725 46.519287 12.71875 44.125 C 12.526198 41.891012 12.580775 39.639566 12.75 37.40625 C 12.815463 36.85625 12.338255 36.261199 11.78125 36.25 z M 70.875 38.03125 C 70.682947 38.03615 70.436503 38.5289 70.3125 39.0625 C 70.601983 39.212859 70.845022 41.032211 71.125 39.90625 C 71.21876 38.508088 71.06705 38.026389 70.875 38.03125 z M 87.875 42.75 L 87.625 43.3125 C 87.206761 46.283377 86.321836 49.243285 84.9375 51.96875 C 86.467009 49.092927 87.460218 45.93691 87.875 42.75 z M 48.6875 55.09375 C 49.862457 56.237537 51.176977 57.359332 52.65625 58.5 L 53.375 59.59375 C 53.321027 59.709802 53.265962 59.823661 53.3125 60 C 51.610839 59.203128 50.032221 58.086913 48.625 56.75 C 48.641625 56.196823 48.669871 55.646872 48.6875 55.09375 z M 44.75 56.28125 C 45.035481 56.607959 45.350462 56.907231 45.6875 57.1875 C 45.514129 56.849068 45.350829 56.564002 45.1875 56.28125 L 44.75 56.28125 z M 48.625 57.15625 C 49.18162 57.836882 49.782872 58.4815 50.46875 59.03125 C 49.872789 58.829337 49.238107 58.325404 48.59375 57.71875 C 48.599264 57.530767 48.619413 57.344228 48.625 57.15625 z M 74.78125 57.3125 L 86.0625 72.8125 L 68.875 78.25 L 58.46875 62.96875 C 60.990488 63.507493 63.388869 63.497172 65.25 62.71875 C 63.078261 62.798982 60.434439 62.783645 57.90625 62.1875 L 56.6875 60.40625 C 62.954946 61.9297 69.229992 61.053295 74.78125 57.3125 z M 15.5 63.28125 C 15.446637 63.281829 15.396462 63.290912 15.34375 63.3125 C 13.51598 64.441439 11.959748 65.974775 10.125 67.09375 C 9.209674 67.768077 8.205772 68.330667 7.375 69.09375 C 6.8092121 69.831047 6.867788 70.942188 7.4375 71.65625 L 10.09375 76.875 C 10.797567 77.678647 11.976533 77.272626 12.84375 77.03125 C 14.399287 76.6579 15.98531 76.943933 17.5625 76.9375 C 18.708041 76.989709 19.708265 77.626314 20.8125 77.875 C 21.553967 78.249135 22.860979 78.228714 22.90625 77.15625 C 23.003505 76.156824 22.242819 75.418141 21.6875 74.6875 C 19.769244 72.126933 18.393859 69.203236 17.125 66.28125 C 16.754884 65.338311 16.56354 64.282987 15.9375 63.46875 C 15.820525 63.36143 15.660088 63.279514 15.5 63.28125 z M 27.90625 70.5625 L 27.875 70.78125 C 27.849386 70.736881 27.838261 70.703046 27.8125 70.65625 L 27.90625 70.5625 z M 32.75 78.53125 C 32.822522 78.526884 32.896251 78.535937 32.96875 78.53125 L 32.875 78.6875 C 32.86181 78.664866 32.770075 78.561918 32.75 78.53125 z M 30.78125 85.75 C 30.720482 85.750498 30.657793 85.754215 30.59375 85.78125 C 29.737128 86.456489 29.451766 87.567192 28.90625 88.46875 C 28.291614 89.708122 27.658694 90.941313 27.125 92.21875 C 26.916214 93.328344 27.67215 94.422453 28.65625 94.875 C 29.591305 95.444964 30.399889 96.461832 31.59375 96.40625 C 33.13641 96.172795 34.105577 94.77357 35.46875 94.15625 C 36.20708 93.794324 37.047197 93.78988 37.84375 93.78125 C 38.619257 93.80963 39.388562 94.28394 40.15625 94.0625 C 41.274568 93.566261 39.991847 92.473306 39.28125 92.3125 C 38.395946 91.665033 37.564323 90.921598 36.6875 90.25 C 34.860139 88.854258 33.167089 87.286092 31.28125 85.96875 C 31.129491 85.846704 30.963555 85.748505 30.78125 85.75 z "
   id="path3713" /></svg>